# Blender v2.79 (sub 0) OBJ File: ''
# www.blender.org
mtllib Thunder.mtl
o Thunder_Untitled.005
v -0.193026 2.178768 -0.489077
v -1.046320 -0.883081 -0.172474
v 0.026866 -0.591273 -0.159989
v -0.601933 -2.932094 0.083071
v 1.047573 0.393773 -0.229753
v -0.069838 0.072123 -0.240697
v 0.738439 1.771701 -0.402046
v -0.199913 2.192769 -0.480979
v -1.047314 -0.911376 -0.159242
v 0.025964 -0.619566 -0.146754
v -0.636310 -3.031734 0.103099
v 1.056010 0.422156 -0.222656
v -0.061263 0.100506 -0.233594
v 0.751542 1.776499 -0.392026
v -0.229924 2.192769 0.216826
v -1.061949 -0.911376 0.181042
v 0.009883 -0.619566 0.227140
v -0.640441 -3.031734 0.199170
v 1.034769 0.422156 0.271218
v -0.080911 0.100506 0.223235
v 0.723593 1.776499 0.257835
v -0.223827 2.178768 0.227098
v -1.048036 -0.896825 0.191650
v 0.023749 -0.605029 0.237745
v -0.603858 -2.933438 0.210753
v 1.015279 0.405954 0.280389
v -0.100488 0.084279 0.232402
v 0.709654 1.771702 0.267245
v -0.169531 2.189715 -0.489330
v -1.032470 -0.896825 -0.170292
v 0.040761 -0.605029 -0.157805
v -0.598380 -2.933438 0.083378
v 1.037298 0.405955 -0.231601
v -0.080061 0.084279 -0.242539
v 0.747623 1.745427 -0.398619
v -0.176418 2.203716 -0.481232
v -1.061164 -0.897632 -0.161424
v 0.012069 -0.605810 -0.148939
v -0.639863 -3.030391 0.102791
v 1.066284 0.409974 -0.220809
v -0.051040 0.088350 -0.231751
v 0.760726 1.750224 -0.388600
v -0.206483 2.203716 0.217834
v -1.075867 -0.897632 0.180444
v -0.004080 -0.605810 0.226539
v -0.644001 -3.030391 0.199017
v 1.045104 0.409974 0.271663
v -0.070627 0.088350 0.223677
v 0.732907 1.750224 0.258236
v -0.200387 2.189715 0.228106
v -1.061954 -0.883081 0.191051
v 0.009786 -0.591273 0.237145
v -0.607418 -2.932095 0.210600
v 1.025614 0.393773 0.280834
v -0.090204 0.072123 0.232845
v 0.718968 1.745427 0.267646
v -0.188026 2.188557 -0.489992
v -0.180194 2.192207 -0.490076
v -1.042553 -0.897762 -0.170618
v -1.047170 -0.893181 -0.171345
v 0.041586 -0.594922 -0.158935
v 0.036955 -0.590337 -0.159664
v -0.602723 -2.941270 0.084095
v -0.603907 -2.940822 0.083993
v 1.046955 0.407168 -0.231326
v 1.050380 0.403108 -0.230710
v -0.082897 0.074958 -0.241585
v -0.079489 0.070906 -0.240971
v 0.747513 1.765075 -0.400891
v 0.750574 1.756317 -0.399749
v -0.194913 2.202558 -0.481894
v -0.187081 2.206207 -0.481978
v -1.057397 -0.912313 -0.159568
v -1.062014 -0.907732 -0.160295
v 0.026789 -0.609459 -0.147885
v 0.022158 -0.604874 -0.148613
v -0.640653 -3.039566 0.103816
v -0.641837 -3.039119 0.103713
v 1.065666 0.423370 -0.222381
v 1.069091 0.419309 -0.221765
v -0.064099 0.091186 -0.232640
v -0.060691 0.087133 -0.232026
v 0.760616 1.769873 -0.390872
v 0.763677 1.761114 -0.389729
v -0.224973 2.202558 0.217039
v -0.217159 2.206207 0.217375
v -1.072028 -0.912313 0.180609
v -1.076667 -0.907732 0.180409
v 0.010659 -0.609459 0.227173
v 0.006004 -0.604874 0.226973
v -0.644746 -3.039566 0.198985
v -0.645932 -3.039119 0.198934
v 1.044420 0.423369 0.271633
v 1.047865 0.419309 0.271782
v -0.083700 0.091186 0.223115
v -0.080272 0.087133 0.223262
v 0.732699 1.769873 0.258227
v 0.735804 1.761114 0.258360
v -0.211062 2.192206 0.227647
v -0.218876 2.188557 0.227311
v -1.062755 -0.893181 0.191017
v -1.058115 -0.897762 0.191216
v 0.019870 -0.590337 0.237579
v 0.024524 -0.594922 0.237779
v -0.609349 -2.940822 0.210517
v -0.608162 -2.941270 0.210568
v 1.028374 0.403108 0.280953
v 1.024929 0.407168 0.280804
v -0.099849 0.070906 0.232430
v -0.103277 0.074958 0.232282
v 0.721865 1.756317 0.267770
v 0.718760 1.765075 0.267637
vt 0.336863 0.996781
vt 0.337300 0.994706
vt 0.339185 0.996775
vt 0.338749 0.998851
vt 0.338808 0.375788
vt 0.339186 0.377712
vt 0.337300 0.381362
vt 0.336922 0.379438
vt 0.146487 0.486920
vt 0.148378 0.486236
vt 0.146500 0.489882
vt 0.144610 0.490565
vt 0.143718 0.000024
vt 0.143807 0.001749
vt 0.141969 0.022162
vt 0.141881 0.020437
vt 0.000000 0.730520
vt 0.000039 0.728639
vt 0.002960 0.724868
vt 0.002920 0.726748
vt 0.199523 0.611625
vt 0.197731 0.612339
vt 0.200667 0.608559
vt 0.202458 0.607845
vt 0.130684 0.965017
vt 0.130668 0.962839
vt 0.133121 0.961475
vt 0.133137 0.963652
vt 0.678922 0.618787
vt 0.679147 0.616740
vt 0.818303 0.616740
vt 0.818303 0.618786
vt 0.818303 0.000000
vt 0.818303 0.001924
vt 0.750128 0.001924
vt 0.750360 0.000000
vt 0.752375 0.620692
vt 0.752375 0.622635
vt 0.677498 0.622635
vt 0.677476 0.620692
vt 0.895191 0.354970
vt 0.895191 0.356686
vt 0.876001 0.356686
vt 0.876202 0.354970
vt 0.993706 0.356812
vt 0.993706 0.358016
vt 0.895498 0.358016
vt 0.895284 0.356812
vt 0.818303 0.000826
vt 0.818303 0.000000
vt 0.909124 0.000000
vt 0.909096 0.000826
vt 0.818303 0.182782
vt 0.818303 0.181343
vt 0.947294 0.181343
vt 0.947544 0.182782
vt 0.677041 0.001168
vt 0.677476 0.003229
vt 0.675349 0.005616
vt 0.674913 0.003555
vt 0.674972 0.615432
vt 0.675349 0.613528
vt 0.677476 0.616810
vt 0.677099 0.618714
vt 0.483168 0.503709
vt 0.485053 0.504402
vt 0.487172 0.507679
vt 0.485287 0.506986
vt 0.480446 0.969653
vt 0.480534 0.967943
vt 0.482613 0.987839
vt 0.482525 0.989548
vt 0.341852 0.268453
vt 0.341891 0.270317
vt 0.339225 0.266203
vt 0.339186 0.264339
vt 0.540863 0.387943
vt 0.539077 0.387221
vt 0.536395 0.383098
vt 0.538182 0.383821
vt 0.471725 0.034716
vt 0.471709 0.036874
vt 0.469509 0.035150
vt 0.469525 0.032993
vt 0.335552 0.997856
vt 0.337438 0.999926
vt 0.333367 0.997931
vt 0.335253 1.000000
vt 0.337674 0.375168
vt 0.335788 0.378818
vt 0.335785 0.375852
vt 0.333899 0.379502
vt 0.145351 0.486300
vt 0.143473 0.489945
vt 0.144968 0.484376
vt 0.143090 0.488021
vt 0.143467 0.000000
vt 0.141629 0.020413
vt 0.143051 0.001678
vt 0.141214 0.022091
vt 0.000876 0.731103
vt 0.003797 0.727332
vt 0.002669 0.730390
vt 0.005589 0.726618
vt 0.200395 0.612208
vt 0.203331 0.608428
vt 0.200350 0.614087
vt 0.203285 0.610307
vt 0.131743 0.966493
vt 0.134195 0.965129
vt 0.133843 0.967270
vt 0.136296 0.965905
vt 0.678838 0.619810
vt 0.818303 0.619810
vt 0.957710 0.353441
vt 0.957767 0.354970
vt 0.818303 0.354970
vt 0.818303 0.353441
vt 0.752375 0.829461
vt 0.752375 0.830327
vt 0.684432 0.830327
vt 0.684538 0.829461
vt 0.752375 0.827519
vt 0.684516 0.827519
vt 0.752375 0.619823
vt 0.677582 0.619823
vt 0.895191 0.836042
vt 0.895191 0.837966
vt 0.820397 0.837966
vt 0.820629 0.836042
vt 0.755270 0.619810
vt 0.755504 0.619810
vt 0.755504 0.638111
vt 0.755270 0.638101
vt 0.754368 0.619810
vt 0.754368 0.638274
vt 0.993707 0.355797
vt 0.895191 0.355797
vt 0.993706 0.354970
vt 0.895218 0.354970
vt 0.818303 0.001838
vt 0.909189 0.001838
vt 0.818303 0.003037
vt 0.909403 0.003037
vt 0.818303 0.184515
vt 0.947745 0.184515
vt 0.818303 0.186540
vt 0.947898 0.186540
vt 0.675733 0.000092
vt 0.673606 0.002479
vt 0.673554 0.000000
vt 0.671427 0.002387
vt 0.673842 0.616038
vt 0.675969 0.619319
vt 0.671957 0.615345
vt 0.674084 0.618626
vt 0.482034 0.504315
vt 0.484153 0.507591
vt 0.481652 0.506218
vt 0.483771 0.509495
vt 0.480195 0.969674
vt 0.482274 0.989570
vt 0.479780 0.968007
vt 0.481859 0.987903
vt 0.342726 0.267882
vt 0.340060 0.263768
vt 0.344514 0.268604
vt 0.341848 0.264490
vt 0.541734 0.387373
vt 0.539052 0.383250
vt 0.541688 0.385510
vt 0.539007 0.381387
vt 0.472781 0.033261
vt 0.470581 0.031538
vt 0.474876 0.032509
vt 0.472676 0.030786
vt 0.747801 0.005270
vt 0.677476 0.614406
vt 0.871751 0.376683
vt 0.818303 0.839384
vt 0.993706 0.731305
vt 0.974548 0.731305
vt 0.768298 0.940966
vt 0.677476 0.940966
vt 0.677476 0.830327
vt 0.775964 0.830327
vt 0.754368 0.619810
vt 0.754368 0.824685
vt 0.818303 0.833923
vt 0.814953 0.622361
vt 0.815298 0.620443
vt 0.816415 0.619810
vt 0.818303 0.620461
vt 0.814953 0.843963
vt 0.812080 0.622075
vt 0.812377 0.620229
vt 0.813334 0.619810
vt 0.814953 0.620818
vt 1.000000 0.714525
vt 0.997097 0.357246
vt 0.997406 0.355391
vt 0.998373 0.354970
vt 1.000000 0.355982
vt 0.997097 0.823071
vt 0.993707 0.357528
vt 0.994071 0.355602
vt 0.995201 0.354970
vt 0.997097 0.355633
vn -0.5451 0.2024 -0.8136
vn -0.5685 -0.0440 -0.8215
vn -0.5685 -0.0439 -0.8215
vn 0.0851 -0.6564 -0.7496
vn -0.5111 0.0248 -0.8592
vn 0.5880 -0.2554 -0.7674
vn 0.5880 -0.2554 -0.7675
vn -0.0411 0.5184 -0.8541
vn -0.0410 0.5184 -0.8542
vn 0.6442 -0.2496 -0.7230
vn -0.8914 0.4517 -0.0383
vn -0.9959 0.0791 -0.0428
vn 0.0923 -0.9957 0.0040
vn -0.9754 0.2162 -0.0420
vn -0.9754 0.2162 -0.0419
vn 0.9580 -0.2838 0.0412
vn -0.1249 0.9922 -0.0054
vn -0.1249 0.9921 -0.0054
vn 0.9654 -0.2573 0.0415
vn -0.5996 0.2870 0.7471
vn -0.6368 0.0478 0.7696
vn 0.0216 -0.6026 0.7977
vn -0.5788 0.1204 0.8065
vn -0.5789 0.1204 0.8065
vn 0.5302 -0.1674 0.8312
vn -0.1084 0.5849 0.8039
vn 0.5904 -0.1661 0.7898
vn 0.5904 -0.1661 0.7899
vn -0.2024 0.4138 -0.8876
vn -0.2023 0.4138 -0.8876
vn 0.1872 0.5592 -0.8076
vn 0.1871 0.5592 -0.8077
vn -0.2601 -0.4015 -0.8781
vn 0.0852 -0.6563 -0.7497
vn -0.2603 -0.4023 -0.8777
vn -0.5687 -0.0454 -0.8213
vn -0.5687 -0.0455 -0.8213
vn 0.0092 -0.2001 -0.9797
vn 0.0093 -0.2001 -0.9797
vn 0.5080 -0.3536 -0.7855
vn 0.3291 0.1358 -0.9345
vn 0.3291 0.1359 -0.9345
vn -0.0409 0.5187 -0.8540
vn -0.0408 0.5187 -0.8540
vn 0.3286 0.1347 -0.9348
vn 0.5872 -0.2572 -0.7675
vn 0.5872 -0.2571 -0.7675
vn 0.5816 0.0980 -0.8075
vn 0.4306 0.4536 -0.7803
vn -0.4224 0.9062 -0.0182
vn -0.4225 0.9062 -0.0182
vn 0.2269 0.9739 0.0098
vn 0.2268 0.9739 0.0098
vn -0.7017 -0.7119 -0.0302
vn 0.0924 -0.9957 0.0040
vn -0.7008 -0.7127 -0.0301
vn -0.7009 -0.7127 -0.0301
vn -0.9961 0.0766 -0.0428
vn -0.3524 -0.9357 -0.0152
vn -0.3522 -0.9358 -0.0151
vn 0.8754 -0.4820 0.0376
vn 0.7615 0.6473 0.0328
vn 0.7616 0.6473 0.0328
vn -0.1246 0.9922 -0.0054
vn 0.7625 0.6462 0.0328
vn 0.7625 0.6461 0.0328
vn 0.9571 -0.2869 0.0412
vn 0.9416 0.3344 0.0405
vn 0.5875 0.8088 0.0253
vn -0.2656 0.4924 0.8288
vn 0.1110 0.6188 0.7776
vn -0.3470 -0.3128 0.8842
vn -0.3469 -0.3129 0.8842
vn 0.0217 -0.6024 0.7979
vn -0.3471 -0.3137 0.8838
vn -0.6371 0.0463 0.7694
vn -0.0762 -0.0887 0.9931
vn 0.4517 -0.2684 0.8508
vn 0.4518 -0.2684 0.8508
vn 0.2426 0.2402 0.9399
vn -0.1082 0.5851 0.8037
vn 0.2422 0.2391 0.9403
vn 0.5295 -0.1691 0.8313
vn 0.5031 0.1912 0.8428
vn 0.3464 0.5221 0.7794
vn 0.3464 0.5221 0.7793
vn -0.6589 0.1066 -0.7447
vn 0.2140 -0.7198 -0.6603
vn -0.6592 0.1050 -0.7446
vn 0.6464 -0.3819 -0.6605
vn -0.1834 0.6290 -0.7555
vn 0.6455 -0.3837 -0.6604
vn 0.3423 0.5909 -0.7305
vn 0.3423 0.5909 -0.7306
vn -0.9636 0.2642 -0.0414
vn 0.2770 -0.9608 0.0119
vn -0.9642 0.2620 -0.0415
vn 0.8971 -0.4402 0.0386
vn -0.2886 0.9574 -0.0124
vn 0.8958 -0.4427 0.0385
vn 0.4167 0.9089 0.0179
vn -0.7117 0.1869 0.6772
vn -0.7117 0.1869 0.6771
vn 0.1655 -0.6794 0.7149
vn -0.7122 0.1853 0.6771
vn 0.6040 -0.3112 0.7337
vn -0.2344 0.6770 0.6977
vn 0.6031 -0.3131 0.7337
vn 0.2643 0.6427 0.7191
vn -0.0430 -0.0000 0.9991
vn -0.0429 -0.0000 0.9991
vn 0.0430 0.0000 -0.9991
vn -0.0426 -0.0000 0.9991
vn 0.0427 -0.1145 -0.9925
vn -0.0427 0.1145 0.9925
vn 0.0426 -0.1145 -0.9925
vn 0.0424 -0.1143 -0.9925
usemtl 01_-_Default46
s off
f 57/1/1 1/2/1 8/3/1
f 8/3/1 71/4/1 57/1/1
f 74/5/2 37/6/2 2/7/2
f 2/7/3 60/8/3 74/5/3
f 76/9/4 38/10/4 3/11/4
f 3/11/4 62/12/4 76/9/4
f 78/13/5 39/14/5 4/15/5
f 4/15/5 64/16/5 78/13/5
f 80/17/6 40/18/6 5/19/6
f 5/19/7 66/20/7 80/17/7
f 82/21/8 41/22/8 6/23/8
f 6/23/9 68/24/9 82/21/9
f 84/25/10 42/26/10 35/27/10
f 35/27/10 70/28/10 84/25/10
f 71/29/11 8/30/11 15/31/11
f 15/31/11 85/32/11 71/29/11
f 88/33/12 44/34/12 37/35/12
f 37/35/12 74/36/12 88/33/12
f 90/37/13 45/38/13 38/39/13
f 38/39/13 76/40/13 90/37/13
f 92/41/14 46/42/14 39/43/14
f 39/43/15 78/44/15 92/41/15
f 94/45/16 47/46/16 40/47/16
f 40/47/16 80/48/16 94/45/16
f 96/49/17 48/50/17 41/51/17
f 41/51/18 82/52/18 96/49/18
f 98/53/19 49/54/19 42/55/19
f 42/55/19 84/56/19 98/53/19
f 85/57/20 15/58/20 22/59/20
f 22/59/20 100/60/20 85/57/20
f 101/61/21 51/62/21 44/63/21
f 44/63/21 88/64/21 101/61/21
f 103/65/22 52/66/22 45/67/22
f 45/67/22 90/68/22 103/65/22
f 105/69/23 53/70/23 46/71/23
f 46/71/24 92/72/24 105/69/24
f 107/73/25 54/74/25 47/75/25
f 47/75/25 94/76/25 107/73/25
f 109/77/26 55/78/26 48/79/26
f 48/79/26 96/80/26 109/77/26
f 111/81/27 56/82/27 49/83/27
f 49/83/28 98/84/28 111/81/28
f 58/85/29 57/1/29 71/4/29
f 71/4/30 72/86/30 58/85/30
f 29/87/31 58/85/31 72/86/31
f 72/86/32 36/88/32 29/87/32
f 73/89/33 74/5/33 60/8/33
f 60/8/33 59/90/33 73/89/33
f 9/91/34 73/89/34 59/90/34
f 59/90/34 30/92/34 9/91/34
f 75/93/35 76/9/35 62/12/35
f 62/12/35 61/94/35 75/93/35
f 10/95/36 75/93/36 61/94/36
f 61/94/37 31/96/37 10/95/37
f 77/97/38 78/13/38 64/16/38
f 64/16/39 63/98/39 77/97/39
f 11/99/40 77/97/40 63/98/40
f 63/98/40 32/100/40 11/99/40
f 79/101/41 80/17/41 66/20/41
f 66/20/42 65/102/42 79/101/42
f 12/103/43 79/101/43 65/102/43
f 65/102/44 33/104/44 12/103/44
f 81/105/45 82/21/45 68/24/45
f 68/24/45 67/106/45 81/105/45
f 13/107/46 81/105/46 67/106/46
f 67/106/47 34/108/47 13/107/47
f 83/109/48 84/25/48 70/28/48
f 70/28/48 69/110/48 83/109/48
f 14/111/49 83/109/49 69/110/49
f 69/110/49 7/112/49 14/111/49
f 72/113/50 71/29/50 85/32/50
f 85/32/51 86/114/51 72/113/51
f 36/115/52 72/116/52 86/117/52
f 86/117/53 43/118/53 36/115/53
f 87/119/54 88/120/54 74/121/54
f 74/121/54 73/122/54 87/119/54
f 16/123/55 87/119/55 73/122/55
f 73/122/55 9/124/55 16/123/55
f 89/125/56 90/37/56 76/40/56
f 76/40/57 75/126/57 89/125/57
f 17/127/58 89/128/58 75/129/58
f 75/129/58 10/130/58 17/127/58
f 91/131/59 92/132/59 78/133/59
f 78/133/60 77/134/60 91/131/60
f 18/135/61 91/131/61 77/134/61
f 77/134/61 11/136/61 18/135/61
f 93/137/62 94/45/62 80/48/62
f 80/48/63 79/138/63 93/137/63
f 19/139/64 93/137/64 79/138/64
f 79/138/64 12/140/64 19/139/64
f 95/141/65 96/49/65 82/52/65
f 82/52/66 81/142/66 95/141/66
f 20/143/67 95/141/67 81/142/67
f 81/142/67 13/144/67 20/143/67
f 97/145/68 98/53/68 84/56/68
f 84/56/68 83/146/68 97/145/68
f 21/147/69 97/145/69 83/146/69
f 83/146/69 14/148/69 21/147/69
f 86/149/70 85/57/70 100/60/70
f 100/60/70 99/150/70 86/149/70
f 43/151/71 86/149/71 99/150/71
f 99/150/71 50/152/71 43/151/71
f 102/153/72 101/61/72 88/64/72
f 88/64/73 87/154/73 102/153/73
f 23/155/74 102/153/74 87/154/74
f 87/154/74 16/156/74 23/155/74
f 104/157/75 103/65/75 90/68/75
f 90/68/75 89/158/75 104/157/75
f 24/159/76 104/157/76 89/158/76
f 89/158/76 17/160/76 24/159/76
f 106/161/77 105/69/77 92/72/77
f 92/72/77 91/162/77 106/161/77
f 25/163/78 106/161/78 91/162/78
f 91/162/79 18/164/79 25/163/79
f 108/165/80 107/73/80 94/76/80
f 94/76/80 93/166/80 108/165/80
f 26/167/81 108/165/81 93/166/81
f 93/166/81 19/168/81 26/167/81
f 110/169/82 109/77/82 96/80/82
f 96/80/82 95/170/82 110/169/82
f 27/171/83 110/169/83 95/170/83
f 95/170/83 20/172/83 27/171/83
f 112/173/84 111/81/84 98/84/84
f 98/84/84 97/174/84 112/173/84
f 28/175/85 112/173/85 97/174/85
f 97/174/86 21/176/86 28/175/86
s 1
f 2/177/87 37/35/87 8/30/87
f 8/30/87 1/178/87 2/177/87
f 3/11/88 38/10/88 9/91/88
f 9/91/88 30/92/88 3/11/88
f 4/179/89 39/43/89 10/130/89
f 10/130/89 31/180/89 4/179/89
f 5/19/90 40/18/90 11/99/90
f 11/99/90 32/100/90 5/19/90
f 6/23/91 41/22/91 12/103/91
f 12/103/91 33/104/91 6/23/91
f 35/27/92 42/26/92 13/107/92
f 13/107/92 34/108/92 35/27/92
f 29/87/93 36/88/93 14/111/94
f 14/111/94 7/112/94 29/87/93
f 37/35/95 44/34/95 15/31/95
f 15/31/95 8/30/95 37/35/95
f 38/39/96 45/38/96 16/123/96
f 16/123/96 9/124/96 38/39/96
f 39/43/97 46/42/97 17/127/97
f 17/127/97 10/130/97 39/43/97
f 40/47/98 47/46/98 18/181/98
f 18/181/98 11/182/98 40/47/98
f 41/183/99 48/184/99 19/185/99
f 19/185/99 12/186/99 41/183/99
f 42/55/100 49/54/100 20/143/100
f 20/143/100 13/144/100 42/55/100
f 36/115/101 43/118/101 21/147/101
f 21/147/101 14/148/101 36/115/101
f 44/63/102 51/62/102 22/59/103
f 22/59/103 15/58/103 44/63/102
f 45/38/104 52/187/104 23/188/104
f 23/188/104 16/123/104 45/38/104
f 46/71/105 53/70/105 24/159/105
f 24/159/105 17/160/105 46/71/105
f 47/75/106 54/74/106 25/163/106
f 25/163/106 18/164/106 47/75/106
f 48/79/107 55/78/107 26/167/107
f 26/167/107 19/168/107 48/79/107
f 49/83/108 56/82/108 27/171/108
f 27/171/108 20/172/108 49/83/108
f 43/151/109 50/152/109 28/175/109
f 28/175/109 21/176/109 43/151/109
f 28/175/110 50/152/110 99/150/110
f 28/175/110 99/150/110 100/60/110
f 28/175/110 100/60/110 22/59/110
f 22/59/110 51/62/110 101/61/110
f 22/59/110 101/61/110 102/153/110
f 22/59/110 102/153/110 23/155/110
f 28/175/110 22/59/110 23/155/110
f 23/189/111 52/190/112 103/191/112
f 23/189/111 103/191/112 104/192/112
f 23/189/111 104/192/112 24/193/110
f 24/159/110 53/70/111 105/69/110
f 24/159/110 105/69/110 106/161/110
f 24/159/110 106/161/110 25/163/110
f 25/163/110 54/74/110 107/73/110
f 25/163/110 107/73/110 108/165/110
f 25/163/110 108/165/110 26/167/110
f 24/159/110 25/163/110 26/167/110
f 26/194/111 55/195/112 109/196/112
f 26/194/111 109/196/112 110/197/112
f 26/194/111 110/197/112 27/198/113
f 24/159/110 26/167/110 27/171/110
f 23/155/110 24/159/110 27/171/110
f 28/175/110 23/155/110 27/171/110
f 112/173/110 28/175/110 27/171/110
f 111/81/110 112/173/110 27/171/110
f 56/82/110 111/81/110 27/171/110
f 35/199/114 34/200/115 67/201/115
f 35/199/114 67/201/115 68/202/115
f 35/199/114 68/202/115 6/203/116
f 6/23/114 33/104/114 65/102/114
f 6/23/114 65/102/114 66/20/114
f 6/23/114 66/20/114 5/19/114
f 5/19/116 32/100/116 63/98/114
f 5/19/116 63/98/114 64/16/114
f 5/19/116 64/16/114 4/15/114
f 4/204/117 31/205/115 61/206/115
f 4/204/117 61/206/115 62/207/115
f 4/204/117 62/207/115 3/208/114
f 5/19/114 4/15/114 3/11/114
f 6/23/114 5/19/114 3/11/114
f 3/11/114 30/92/114 59/90/114
f 3/11/114 59/90/114 60/8/114
f 3/11/114 60/8/114 2/7/114
f 6/23/114 3/11/114 2/7/114
f 35/27/114 6/23/114 2/7/114
f 2/7/114 1/2/114 57/1/114
f 2/7/114 57/1/114 58/85/114
f 2/7/114 58/85/114 29/87/114
f 35/27/114 2/7/114 29/87/114
f 70/28/114 35/27/114 29/87/114
f 69/110/114 70/28/114 29/87/114
f 7/112/114 69/110/114 29/87/114
